HIERARCHY
ROOT RootJoint
{
    OFFSET   0.000000   0.000000   0.000000
    CHANNELS 6 Xposition Yposition Zposition Xrotation Yrotation Zrotation
    JOINT pelvis_lowerback
    {
        OFFSET   0.000000   0.093605   0.000000
        CHANNELS 3 Xrotation Yrotation Zrotation
        JOINT lowerback_torso
        {
            OFFSET   0.000000   0.100000   0.000000
            CHANNELS 3 Xrotation Yrotation Zrotation
            JOINT torso_head
            {
                OFFSET   0.000000   0.282350   0.000000
                CHANNELS 3 Xrotation Yrotation Zrotation
                End Site
                {
                    OFFSET   0.000000   0.192650   0.000000
                }
            }
            JOINT rTorso_Clavicle
            {
                OFFSET  -0.001000   0.157500   0.000000
                CHANNELS 3 Xrotation Yrotation Zrotation
                JOINT rShoulder
                {
                    OFFSET  -0.117647   0.000000   0.000000
                    CHANNELS 3 Xrotation Yrotation Zrotation
                    JOINT rElbow
                    {
                        OFFSET  -0.245000   0.000000   0.000000
                        CHANNELS 3 Xrotation Yrotation Zrotation
                        JOINT rWrist
                        {
                            OFFSET  -0.240000   0.000000   0.000000
                            CHANNELS 3 Xrotation Yrotation Zrotation
                            End Site
                            {
                                OFFSET  -0.116353  -0.002500   0.000000
                            }
                        }
                    }
                }
            }
            JOINT lTorso_Clavicle
            {
                OFFSET   0.001000   0.157500   0.000000
                CHANNELS 3 Xrotation Yrotation Zrotation
                JOINT lShoulder
                {
                    OFFSET   0.117647   0.000000   0.000000
                    CHANNELS 3 Xrotation Yrotation Zrotation
                    JOINT lElbow
                    {
                        OFFSET   0.245000   0.000000   0.000000
                        CHANNELS 3 Xrotation Yrotation Zrotation
                        JOINT lWrist
                        {
                            OFFSET   0.240000   0.000000   0.000000
                            CHANNELS 3 Xrotation Yrotation Zrotation
                            End Site
                            {
                                OFFSET   0.116353  -0.002500   0.000000
                            }
                        }
                    }
                }
            }
        }
    }
    JOINT rHip
    {
        OFFSET  -0.100000  -0.051395   0.000000
        CHANNELS 3 Xrotation Yrotation Zrotation
        JOINT rKnee
        {
            OFFSET   0.000000  -0.410000   0.000000
            CHANNELS 3 Xrotation Yrotation Zrotation
            JOINT rAnkle
            {
                OFFSET   0.000000  -0.390000   0.000000
                CHANNELS 3 Xrotation Yrotation Zrotation
                JOINT rToeJoint
                {
                    OFFSET   0.000000  -0.050000   0.130000
                    CHANNELS 3 Xrotation Yrotation Zrotation
                    End Site
                    {
                        OFFSET  -0.010000   0.002000   0.060000
                    }
                }
            }
        }
    }
    JOINT lHip
    {
        OFFSET   0.100000  -0.051395   0.000000
        CHANNELS 3 Xrotation Yrotation Zrotation
        JOINT lKnee
        {
            OFFSET   0.000000  -0.410000   0.000000
            CHANNELS 3 Xrotation Yrotation Zrotation
            JOINT lAnkle
            {
                OFFSET   0.000000  -0.390000   0.000000
                CHANNELS 3 Xrotation Yrotation Zrotation
                JOINT lToeJoint
                {
                    OFFSET   0.000000  -0.050000   0.130000
                    CHANNELS 3 Xrotation Yrotation Zrotation
                    End Site
                    {
                        OFFSET   0.010000   0.002000   0.060000
                    }
                }
            }
        }
    }
}
MOTION
Frames: 12
Frame Time:   0.008333
 -2.530519   0.938762   3.974505  -0.954611  -5.092635   6.545321  20.120599   3.856104  -1.885569   6.295614   0.183529  -1.022141   0.964667  -3.346273  -1.016244   4.884052   1.722293  -5.252542  12.435537   7.495693  59.115566 179.987354  53.222531 -179.985832   2.829712   3.967566  -6.853105   5.351287  -1.679353   3.655354  11.427797  -8.557111 -49.153621 -179.999861 -74.051883 -179.996312  -0.572713  -5.085886   7.141883 -15.127309  -1.453263 -10.772888  40.588394  -0.007454  -0.022854  11.169794  -1.035550   5.005021 -48.243815   0.044738  -0.054565 -44.039137   2.671607  12.257769  95.928420   0.000035   0.064157  11.300381   1.142005  -7.329179  -8.768887  -0.002812   0.042340
 -2.531712   0.941343   3.973292  -1.004110  -5.092606   6.735316  20.309729   3.903966  -2.009109   6.494690   0.181176  -1.118577   1.152783  -3.324679  -0.906841   4.879110   1.783382  -5.013233  12.352901   7.434304  59.311172 179.989770  53.512061 -179.989719   2.729840   4.256556  -6.841006   5.489448  -1.559729   3.705296  11.828007  -8.715213 -49.258332 179.996658 -73.790117 179.998654  -0.667303  -4.653258   6.983864 -14.707773  -1.297987 -10.856526  39.740542  -0.005953  -0.019860  11.510021  -0.846294   4.697228 -47.595119   0.035029  -0.041027 -44.602592   2.678735  12.197291  97.333355   0.001703   0.051957  10.629582   1.334084  -7.537325  -8.125135  -0.000683   0.035491
 -2.532904   0.944463   3.972205  -0.999318  -5.083716   6.870598  20.414161   3.886904  -2.138266   6.671910   0.128185  -1.195611   1.339726  -3.306082  -0.812422   4.927062   1.792332  -4.779293  12.330380   7.357776  59.508402 179.991141  53.826074 -179.992304   2.598073   4.267163  -6.774018   5.616412  -1.431339   3.795577  12.199933  -8.871580 -49.355803 179.993147 -73.497743 179.993944  -0.737455  -4.431790   6.804237 -14.356045  -1.191855 -10.937139  38.764410  -0.004946  -0.017189  12.264300  -0.504978   4.824814 -47.076151   0.026044  -0.031830 -45.020921   2.740697  12.075102  98.426883   0.002816   0.041069   9.993194   1.514709  -7.729525  -7.543367   0.000932   0.029206
 -2.534075   0.947854   3.971253  -0.955983  -5.056301   6.967541  20.455811   3.819607  -2.273107   6.811324   0.030632  -1.264536   1.514295  -3.289980  -0.727310   4.999398   1.761003  -4.566421  12.340003   7.271367  59.696177 179.991881  54.122305 -179.993764   2.460973   4.189239  -6.703941   5.727406  -1.309581   3.912256  12.541447  -9.017972 -49.433960 179.990374 -73.210269 179.990362  -0.792904  -4.313362   6.630699 -14.029720  -1.089539 -10.942067  37.808503  -0.004021  -0.015371  13.138008  -0.264986   4.654854 -46.660964   0.020232  -0.023993 -45.349143   2.840694  11.898988  99.393104   0.003650   0.031761   9.397141   1.684395  -7.907248  -7.009329   0.002122   0.023712
 -2.535230   0.951276   3.970421  -0.878933  -5.028894   7.041335  20.442861   3.722577  -2.425951   6.909516  -0.095803  -1.336574   1.675246  -3.275733  -0.650070   5.082359   1.703487  -4.380404  12.366950   7.180050  59.871496 179.992297  54.394260 -179.994461   2.328031   4.100938  -6.647703   5.822342  -1.196154   4.051736  12.853738  -9.153057 -49.492726 179.988425 -72.933276 179.987902  -0.839527  -4.250714   6.477460 -13.723518  -0.995776 -10.920990  36.818927  -0.003268  -0.013942  14.093672  -0.042362   4.516369 -46.328803   0.015735  -0.018105 -45.612819   2.971562  11.689436 100.296656   0.004189   0.023938   8.841238   1.843376  -8.072003  -6.516449   0.002901   0.019034
 -2.536394   0.954594   3.969688  -0.777756  -5.008988   7.092376  20.388194   3.608168  -2.595435   6.970193  -0.239604  -1.415630   1.822215  -3.262988  -0.580324   5.168051   1.631133  -4.218993  12.402310   7.087206  60.033283 179.992564  54.643123 -179.994701   2.201827   4.024079  -6.609710   5.901988  -1.092514   4.205710  13.138217  -9.277663 -49.535275 179.987214 -72.669106 179.986379  -0.879836  -4.223494   6.349632 -13.439323  -0.912092 -10.876783  35.827471  -0.002609  -0.012682  15.071310   0.175974   4.400704 -46.063065   0.012231  -0.013674 -45.822940   3.119150  11.466128 101.154846   0.004451   0.017463   8.323570   1.992512  -8.224700  -6.060485   0.003338   0.015127
 -2.537575   0.957727   3.969033  -0.660647  -4.998057   7.120841  20.302658   3.483712  -2.777745   6.999592  -0.393549  -1.502761   1.955911  -3.251533  -0.517585   5.252401   1.551187  -4.078661  12.441168   6.995072  60.181872 179.992780  54.871257 -179.994697   2.082622   3.962486  -6.589255   5.968063  -0.999566   4.366111  13.396934  -9.393545 -49.565734 179.986603 -72.418708 179.985576  -0.915319  -4.220765   6.245040 -13.177375  -0.838096 -10.809701  34.856064  -0.002014  -0.011513  16.036221   0.389555   4.300404 -45.850469   0.009502  -0.010336 -45.987575   3.273922  11.239083 101.970278   0.004488   0.012173   7.841630   2.132597  -8.366165  -5.638621   0.003516   0.011900
 -2.538298   0.962583   3.968003  -0.548759  -5.301744   7.106618  20.325650   3.278050  -3.001992   7.130423  -0.431099  -1.623383   2.161433  -3.155123  -0.382159   5.355444   1.606241  -3.888274  12.662924   6.938574  60.337255 179.992562  55.177556 -179.995025   1.945871   3.990911  -6.707068   6.068399  -1.004551   4.393537  13.637950  -9.448320 -49.656252 179.975461 -71.757119 179.972969  -0.996967  -3.829837   6.253235 -13.523007  -0.735556 -10.828948  34.445048  -0.001369  -0.008267  18.413677   1.073357   4.624062 -45.680430   0.006787  -0.008449 -45.445294   3.656628  10.870883 101.288335   0.003807   0.013200   7.454535   2.171887  -8.760838  -5.544643   0.003107   0.009063
 -2.539011   0.967844   3.967034  -0.421400  -5.608469   6.969835  20.290095   2.996964  -3.182582   7.290680  -0.517559  -1.688965   2.382431  -3.064073  -0.244303   5.504375   1.613494  -3.711740  12.922790   6.885249  60.501864 179.991811  55.460322 -179.994719   1.803638   3.977794  -6.703674   6.172829  -1.000689   4.441437  13.869860  -9.521810 -49.756183 179.964545 -71.086379 179.961098  -1.058067  -3.664257   6.157905 -13.995568  -0.682798 -10.744450  34.079324  -0.000876  -0.005617  21.292383   1.856050   5.018295 -45.544407   0.004664  -0.006998 -44.684735   4.043991  10.438360 100.217454   0.003103   0.017292   7.076304   2.211449  -9.127694  -5.464163   0.002737   0.006744
 -2.539808   0.972921   3.966216  -0.275250  -5.898894   6.762930  20.188889   2.669150  -3.366005   7.426958  -0.655858  -1.727232   2.597016  -2.980754  -0.111300   5.679034   1.570109  -3.556584  13.203045   6.823543  60.664419 179.990878  55.714719 -179.993915   1.665877   3.966450  -6.664401   6.271940  -0.988705   4.531348  14.090178  -9.589614 -49.834316 179.956397 -70.442012 179.952619  -1.105790  -3.610466   6.019253 -14.482953  -0.654758 -10.584998  33.678133  -0.000488  -0.003436  24.283967   2.665845   5.401622 -45.435579   0.003088  -0.005792 -43.846695   4.440072   9.963521  99.097788   0.001933   0.021619   6.718936   2.249800  -9.469887  -5.387405   0.002442   0.004864
 -2.540697   0.977623   3.965525  -0.116727  -6.187013   6.500896  20.041616   2.319693  -3.555638   7.526604  -0.828644  -1.759106   2.796034  -2.904102   0.012514   5.862254   1.495303  -3.422214  13.486977   6.754125  60.817007 179.989985  55.946539 -179.992892   1.534394   3.961655  -6.635120   6.358601  -0.976864   4.648568  14.292431  -9.649426 -49.890990 179.951166 -69.832848 179.947421  -1.145534  -3.606121   5.886490 -14.966353  -0.641680 -10.358905  33.265077  -0.000178  -0.001698  27.179969   3.472977   5.739080 -45.054799   0.000144  -0.005291 -42.979857   4.837534   9.469123  98.027926   0.000531   0.025210   6.385294   2.286283  -9.789562  -5.310438   0.002214   0.003334
 -2.541663   0.981911   3.964921   0.046744  -6.484027   6.189555  19.866816   1.963986  -3.748979   7.593231  -1.021571  -1.793186   2.977900  -2.833249   0.126562   6.043336   1.405172  -3.305423  13.763676   6.680797  60.957498 179.989241  56.160042 -179.991852   1.409085   3.960783  -6.627919   6.431068  -0.971121   4.777282  14.474231  -9.704317 -49.932667 179.948322 -69.260837 179.944749  -1.180110  -3.625705   5.773944 -15.444488  -0.641325 -10.071378  32.861598   0.000075  -0.000340  29.910449   4.263723   6.023958 -44.298459  -0.004460  -0.005394 -42.105107   5.228080   8.967015  97.030092  -0.000852   0.027901   6.074925   2.320989 -10.088238  -5.233026   0.002035   0.002089
